# xmcd CD database file
#
# Track frame offsets:
#	150
#	32107
#	73457
#	98332
#	118937
#	137042
#	160957
#	187845
#	212807
#
# Disc length: 3130 seconds
#
# Revision: 0
# Processed by: cddbd v1.4PL0 Copyright (c) Steve Scherf et al.
# Submitted via: CDex 1.50
#
DISCID=800c3809
DTITLE=Sherman Irby - Black Warrior
DYEAR=2001
DGENRE=Jazz
TTITLE0=Black Warrior
TTITLE1=Yemonja
TTITLE2=Ornate
TTITLE3=Three Elders
TTITLE4=Lost Prophet
TTITLE5=Well Water
TTITLE6=Blues for Stanley T.
TTITLE7=Ruby
TTITLE8=Brother
EXTD=YEAR: 2001
EXTT0=
EXTT1=
EXTT2=
EXTT3=
EXTT4=
EXTT5=
EXTT6=
EXTT7=
EXTT8=
PLAYORDER=
